<?xml version="1.0" encoding="utf-8" ?>
<svg baseProfile="full" height="685.198860168457" version="1.1" width="602.3114624023438" xmlns="http://www.w3.org/2000/svg" xmlns:ev="http://www.w3.org/2001/xml-events" xmlns:xlink="http://www.w3.org/1999/xlink"><defs /><rect fill="white" height="685.198860168457" width="602.3114624023438" x="0" y="0" /><path d="M163.05682373046875,589.5507202148438 m0.0,0.0 l-17.56688505411148,-11.02723702788353 -106.41824007034302,15.366150438785553 l-7.484813034534454,28.83513569831848 -6.586890667676926,19.832469522953033 l8.121741563081741,16.51218980550766 13.852231204509735,1.1294296011328697 l22.49384969472885,-4.077528789639473 36.671146750450134,-10.076532512903214 l22.282904386520386,-4.978097602725029 12.217753380537033,-3.297587111592293 l15.362825989723206,-7.465378940105438 12.54720687866211,-16.319209337234497 l-11.56696155667305,-5.678817629814148 -7.397018373012543,-7.6020509004592896 l1.054091937839985,-9.39706414937973 -7.94738307595253,-7.2349876165390015 l-12.662234902381897,-18.025778234004974 -11.176516115665436,-21.912522614002228 l1.2063181959092617,-17.979520559310913 15.07355272769928,-5.637209117412567 l1.6879692673683167,-0.6909627467393875 9.130138158798218,-14.18311595916748 l26.569509506225586,-25.617197155952454 13.467079401016235,-17.085447907447815 l12.900374829769135,-12.19702810049057 7.336577773094177,-0.5085267126560211 l20.64949870109558,-1.37895829975605 10.34097820520401,-9.165352582931519 l20.655202865600586,-21.782420575618744 21.301396191120148,-10.922911763191223 l9.441811591386795,-12.93521523475647 9.452174603939056,-5.926739424467087 l1.446794718503952,-1.3679679483175278 40.25800824165344,-44.590818881988525 l1.6771413385868073,-6.715866923332214 -2.29952335357666,-15.140998363494873 l5.610392987728119,-21.801847219467163 9.792272746562958,-8.998265117406845 l-1.8812336027622223,-18.62269639968872 14.877858757972717,-45.86033225059509 l13.7838214635849,-26.7348974943161 9.199383109807968,-9.80948582291603 l3.157246485352516,0.5734112113714218 -8.013314008712769,2.9451414942741394 l-23.50999414920807,12.023086845874786 -25.689491629600525,15.066441893577576 l-14.050865173339844,0.15801042318344116 73.22425246238708,17.189428210258484 l4.013916850090027,-39.00529444217682 -7.126337289810181,-5.063042789697647 l0.07000751793384552,-0.12527042999863625 22.85887598991394,-4.346142336726189 l32.0999801158905,41.21612012386322 25.045767426490784,22.94672280550003 l65.47635793685913,35.49172878265381 35.86203157901764,35.095152258872986 l3.361852839589119,4.371987283229828 -0.17489269375801086,-9.961110353469849 l-1.0662217624485493,-42.02988147735596 -3.51218618452549,-73.24275970458984 l-1.906442642211914,-37.6653790473938 -2.8877627104520798,-47.51005172729492 l-10.480626672506332,-91.60775542259216 -11.194093525409698,21.076160669326782 l-3.2137908041477203,65.32089710235596 " fill="none" stroke="black" stroke-width="1" /></svg>